<?xml version="1.0" encoding="UTF-8" standalone="no"?>
<svg width="26px" height="25px" viewBox="0 0 26 25" version="1.1" xmlns="http://www.w3.org/2000/svg" xmlns:xlink="http://www.w3.org/1999/xlink">
    <defs></defs>
    <g stroke="none" stroke-width="1" fill="none" fill-rule="evenodd">
        <path d="M16.2467955,0 C10.86464,0 6.49798555,4.19921875 6.49798555,9.375 C6.49798555,11.2304688 7.04381736,12.9394531 8.00854334,14.3798828 L0.633467058,21.4355469 C-0.217015061,22.253418 -0.217015061,23.5839844 0.633467058,24.3896484 C1.05236124,24.7924805 1.59819304,25 2.16941238,25 C2.70255042,25 3.27376976,24.7924805 3.7053577,24.3896484 L11.0423527,17.2973633 C12.5402167,18.2250977 14.3173435,18.75 16.2467955,18.75 C21.628951,18.75 25.9956055,14.5507812 25.9956055,9.375 C25.9956055,4.19921875 21.628951,0 16.2467955,0 L16.2467955,0 Z M16.2467955,15.625 C12.6671544,15.625 9.74758887,12.8173828 9.74758887,9.375 C9.74758887,5.93261719 12.6671544,3.125 16.2467955,3.125 C19.8264367,3.125 22.7460021,5.93261719 22.7460021,9.375 C22.7460021,12.8173828 19.8264367,15.625 16.2467955,15.625 L16.2467955,15.625 Z" fill="#CCCCCC"></path>
    </g>
</svg>